<svg width="380" height="380" viewBox="0 0 380 380" fill="none" xmlns="http://www.w3.org/2000/svg">
<path d="M366.834 205.007C364.162 175.015 359.761 169.174 358.098 166.977C354.276 161.901 348.16 158.583 341.688 155.102C341.322 154.909 341.006 154.633 340.765 154.296C340.524 153.96 340.364 153.572 340.299 153.163C340.233 152.754 340.264 152.336 340.388 151.941C340.512 151.546 340.726 151.185 341.013 150.887C342.211 149.671 343.133 148.211 343.713 146.605C344.293 145 344.519 143.288 344.375 141.587C344.096 138.571 342.693 135.77 340.446 133.739C338.198 131.709 335.269 130.597 332.24 130.625H320.662C320.166 130.628 319.67 130.66 319.178 130.721C318.84 130.575 318.49 130.458 318.131 130.373C311.273 115.878 301.885 96.0316 282.425 86.3461C253.561 71.9922 200.391 71.25 190 71.25C179.609 71.25 126.439 71.9922 97.6125 86.3238C78.1523 96.0094 68.7637 115.855 61.9058 130.35L61.8465 130.469C61.5044 130.517 61.1685 130.602 60.8445 130.721C60.352 130.66 59.8564 130.628 59.3601 130.625H47.7597C44.7308 130.597 41.8021 131.709 39.5543 133.739C37.3066 135.77 35.9041 138.571 35.625 141.587C35.4931 143.284 35.7293 144.99 36.3172 146.587C36.9052 148.184 37.8311 149.636 39.0316 150.842C39.3188 151.14 39.5328 151.501 39.6567 151.896C39.7806 152.291 39.811 152.71 39.7455 153.118C39.68 153.527 39.5204 153.915 39.2793 154.252C39.0382 154.588 38.7222 154.864 38.3562 155.058C31.8843 158.561 25.739 161.879 21.9465 166.933C20.284 169.159 15.8902 174.971 13.2109 204.963C11.7265 221.84 11.5039 239.311 12.6691 250.562C15.1109 273.941 19.6902 288.073 19.8832 288.659C20.5859 290.793 21.8794 292.683 23.6135 294.111C25.3476 295.539 27.4512 296.446 29.6801 296.727V296.875C29.6801 300.024 30.9312 303.045 33.1582 305.272C35.3852 307.499 38.4056 308.75 41.5551 308.75H83.1176C86.267 308.75 89.2875 307.499 91.5145 305.272C93.7414 303.045 94.9926 300.024 94.9926 296.875C101.383 296.875 105.828 295.732 110.541 294.515C117.346 292.681 124.301 291.462 131.323 290.871C153.967 288.711 176.485 287.969 190 287.969C203.241 287.969 226.753 288.711 249.434 290.871C256.484 291.463 263.467 292.688 270.297 294.53C274.81 295.688 279.092 296.756 285.022 296.868C285.022 300.017 286.273 303.037 288.5 305.264C290.727 307.491 293.748 308.743 296.897 308.743H338.46C341.609 308.743 344.63 307.491 346.857 305.264C349.084 303.037 350.335 300.017 350.335 296.868V296.779C352.569 296.503 354.679 295.599 356.419 294.171C358.158 292.742 359.456 290.849 360.161 288.711C360.354 288.125 364.934 273.993 367.375 250.614C368.541 239.355 368.333 221.914 366.834 205.007ZM83.3699 140.504C89.3074 127.886 96.0984 113.607 108.189 107.588C125.66 98.8891 161.871 94.9703 190 94.9703C218.129 94.9703 254.34 98.8594 271.811 107.588C283.902 113.607 290.663 127.894 296.63 140.504L297.372 142.114C297.806 143.031 297.998 144.044 297.93 145.056C297.861 146.068 297.534 147.046 296.98 147.895C296.427 148.745 295.665 149.439 294.766 149.911C293.868 150.383 292.864 150.616 291.85 150.59C267.187 149.922 215.234 147.784 190 147.784C164.766 147.784 112.812 149.974 88.1125 150.642C87.0984 150.668 86.0945 150.435 85.1964 149.963C84.2983 149.491 83.5361 148.797 82.9824 147.947C82.4286 147.097 82.1019 146.12 82.0333 145.108C81.9647 144.096 82.1566 143.083 82.5906 142.166C82.8504 141.617 83.125 141.06 83.3699 140.504ZM92.2242 199.604C79.4571 201.141 66.6084 201.899 53.7492 201.875C45.882 201.875 37.7699 199.648 36.2633 192.642C35.2316 187.929 35.3429 185.28 35.8996 182.615C36.3672 180.352 37.1094 178.704 40.8203 178.125C50.4687 176.641 55.8644 178.504 71.6582 183.157C82.1304 186.237 89.6859 190.341 93.9906 193.592C96.1504 195.195 95 199.381 92.2242 199.604ZM256.53 260.463C246.762 261.577 227.228 261.168 190.223 261.168C153.217 261.168 133.69 261.577 123.923 260.463C113.844 259.343 100.997 249.813 109.77 241.322C115.611 235.726 129.237 231.54 147.384 229.187C165.53 226.835 173.212 225.625 190.148 225.625C207.085 225.625 213.987 226.367 232.913 229.195C251.839 232.023 266.141 236.261 270.527 241.33C278.528 250.414 266.601 259.283 256.53 260.508V260.463ZM343.737 192.635C342.252 199.671 334.088 201.868 326.251 201.868C313.145 201.871 300.051 201.112 287.034 199.596C284.762 199.381 283.709 195.396 286.009 193.585C290.247 190.252 297.884 186.23 308.342 183.15C324.136 178.496 333.242 176.633 341.065 178.184C342.972 178.563 343.982 180.611 344.1 181.895C344.624 185.47 344.501 189.111 343.737 192.642V192.635Z" fill="black" fill-opacity="0.2"/>
</svg>
