<svg width="180" height="48" viewBox="0 0 180 48" fill="none" xmlns="http://www.w3.org/2000/svg">
<path d="M46.3383 25.8956C46.0008 22.1072 45.4448 21.3694 45.2348 21.0919C44.752 20.4506 43.9795 20.0316 43.162 19.5919C43.1158 19.5674 43.0759 19.5326 43.0454 19.4901C43.015 19.4476 42.9948 19.3985 42.9865 19.3469C42.9783 19.2953 42.9821 19.2424 42.9977 19.1925C43.0134 19.1426 43.0404 19.097 43.0767 19.0594C43.2281 18.9058 43.3445 18.7213 43.4178 18.5186C43.4911 18.3158 43.5196 18.0995 43.5014 17.8847C43.4661 17.5037 43.289 17.1499 43.0051 16.8934C42.7211 16.6369 42.3512 16.4965 41.9686 16.5H40.5061C40.4434 16.5004 40.3808 16.5044 40.3186 16.5122C40.2759 16.4937 40.2317 16.4789 40.1864 16.4681C39.3201 14.6372 38.1342 12.1303 35.6761 10.9069C32.0301 9.09375 25.3139 9 24.0014 9C22.6889 9 15.9726 9.09375 12.3314 10.9041C9.87327 12.1275 8.68733 14.6344 7.82108 16.4653L7.81358 16.4803C7.77038 16.4864 7.72795 16.4971 7.68702 16.5122C7.62481 16.5044 7.56221 16.5004 7.49952 16.5H6.03421C5.65161 16.4965 5.28166 16.6369 4.99774 16.8934C4.71381 17.1499 4.53665 17.5037 4.5014 17.8847C4.48474 18.099 4.51457 18.3145 4.58884 18.5162C4.6631 18.718 4.78006 18.9013 4.93171 19.0538C4.96799 19.0914 4.99502 19.137 5.01067 19.1869C5.02632 19.2368 5.03016 19.2896 5.02189 19.3413C5.01361 19.3929 4.99345 19.4419 4.963 19.4844C4.93254 19.527 4.89263 19.5618 4.8464 19.5863C4.0289 20.0287 3.25265 20.4478 2.77358 21.0863C2.56358 21.3675 2.00858 22.1016 1.67014 25.89C1.48264 28.0219 1.45452 30.2288 1.60171 31.65C1.91015 34.6031 2.48858 36.3881 2.51296 36.4622C2.60172 36.7317 2.76511 36.9705 2.98415 37.1509C3.2032 37.3313 3.46892 37.4458 3.75046 37.4812V37.5C3.75046 37.8978 3.90849 38.2794 4.1898 38.5607C4.4711 38.842 4.85263 39 5.25046 39H10.5005C10.8983 39 11.2798 38.842 11.5611 38.5607C11.8424 38.2794 12.0005 37.8978 12.0005 37.5C12.8076 37.5 13.3692 37.3556 13.9645 37.2019C14.824 36.9703 15.7025 36.8162 16.5895 36.7416C19.4498 36.4688 22.2942 36.375 24.0014 36.375C25.6739 36.375 28.6439 36.4688 31.5089 36.7416C32.3994 36.8164 33.2814 36.9711 34.1442 37.2038C34.7142 37.35 35.2551 37.485 36.0042 37.4991C36.0042 37.8969 36.1622 38.2784 36.4436 38.5597C36.7249 38.841 37.1064 38.9991 37.5042 38.9991H42.7542C43.152 38.9991 43.5336 38.841 43.8149 38.5597C44.0962 38.2784 44.2542 37.8969 44.2542 37.4991V37.4878C44.5364 37.4531 44.8029 37.3388 45.0227 37.1584C45.2425 36.978 45.4064 36.7388 45.4955 36.4688C45.5198 36.3947 46.0983 34.6097 46.4067 31.6566C46.5539 30.2344 46.5276 28.0312 46.3383 25.8956ZM10.5323 17.7478C11.2823 16.1541 12.1401 14.3503 13.6673 13.59C15.8742 12.4913 20.4483 11.9962 24.0014 11.9962C27.5545 11.9962 32.1286 12.4875 34.3355 13.59C35.8626 14.3503 36.7167 16.155 37.4705 17.7478L37.5642 17.9513C37.619 18.0671 37.6433 18.195 37.6346 18.3228C37.6259 18.4507 37.5847 18.5742 37.5147 18.6815C37.4448 18.7889 37.3485 18.8765 37.2351 18.9361C37.1216 18.9957 36.9948 19.0252 36.8667 19.0219C33.7514 18.9375 27.1889 18.6675 24.0014 18.6675C20.8139 18.6675 14.2514 18.9441 11.1314 19.0284C11.0033 19.0318 10.8765 19.0023 10.7631 18.9427C10.6496 18.8831 10.5533 18.7955 10.4834 18.6881C10.4134 18.5807 10.3722 18.4572 10.3635 18.3294C10.3548 18.2016 10.3791 18.0736 10.4339 17.9578C10.4667 17.8884 10.5014 17.8181 10.5323 17.7478ZM11.6508 25.2131C10.0381 25.4072 8.41509 25.503 6.79077 25.5C5.79702 25.5 4.77233 25.2188 4.58202 24.3337C4.45171 23.7384 4.46577 23.4038 4.53608 23.0672C4.59514 22.7812 4.6889 22.5731 5.15765 22.5C6.3764 22.3125 7.05796 22.5478 9.05296 23.1356C10.3758 23.5247 11.3301 24.0431 11.8739 24.4537C12.1467 24.6562 12.0014 25.185 11.6508 25.2131ZM32.4051 32.9006C31.1714 33.0413 28.7039 32.9897 24.0295 32.9897C19.3551 32.9897 16.8886 33.0413 15.6548 32.9006C14.3817 32.7591 12.7589 31.5553 13.867 30.4828C14.6048 29.7759 16.3261 29.2472 18.6183 28.95C20.9105 28.6528 21.8808 28.5 24.0201 28.5C26.1595 28.5 27.0314 28.5938 29.422 28.9509C31.8126 29.3081 33.6192 29.8434 34.1733 30.4837C35.1839 31.6313 33.6773 32.7516 32.4051 32.9062V32.9006ZM43.4208 24.3328C43.2333 25.2216 42.202 25.4991 41.212 25.4991C39.5566 25.4994 37.9026 25.4037 36.2583 25.2122C35.9714 25.185 35.8383 24.6816 36.1289 24.4528C36.6642 24.0319 37.6289 23.5238 38.9498 23.1347C40.9448 22.5469 42.0951 22.3116 43.0833 22.5075C43.3242 22.5553 43.4517 22.8141 43.4667 22.9762C43.5328 23.4278 43.5173 23.8877 43.4208 24.3337V24.3328Z" fill="black"/>
<path d="M71.2784 21.9375H68.7898C68.7443 21.6155 68.6515 21.3295 68.5114 21.0795C68.3712 20.8258 68.1913 20.6098 67.9716 20.4318C67.7519 20.2538 67.4981 20.1174 67.2102 20.0227C66.9261 19.928 66.6174 19.8807 66.2841 19.8807C65.6818 19.8807 65.1572 20.0303 64.7102 20.3295C64.2633 20.625 63.9167 21.0568 63.6705 21.625C63.4242 22.1894 63.3011 22.875 63.3011 23.6818C63.3011 24.5114 63.4242 25.2083 63.6705 25.7727C63.9205 26.3371 64.2689 26.7633 64.7159 27.0511C65.1629 27.339 65.6799 27.483 66.267 27.483C66.5966 27.483 66.9015 27.4394 67.1818 27.3523C67.4659 27.2652 67.7178 27.1383 67.9375 26.9716C68.1572 26.8011 68.339 26.5947 68.483 26.3523C68.6307 26.1098 68.733 25.8333 68.7898 25.5227L71.2784 25.5341C71.214 26.0682 71.053 26.5833 70.7955 27.0795C70.5417 27.572 70.1989 28.0133 69.767 28.4034C69.339 28.7898 68.8277 29.0966 68.233 29.3239C67.642 29.5473 66.9735 29.6591 66.2273 29.6591C65.1894 29.6591 64.2614 29.4242 63.4432 28.9545C62.6288 28.4848 61.9848 27.8049 61.5114 26.9148C61.0417 26.0246 60.8068 24.947 60.8068 23.6818C60.8068 22.4129 61.0455 21.3333 61.5227 20.4432C62 19.553 62.6477 18.875 63.4659 18.4091C64.2841 17.9394 65.2045 17.7045 66.2273 17.7045C66.9015 17.7045 67.5265 17.7992 68.1023 17.9886C68.6818 18.178 69.1951 18.4545 69.642 18.8182C70.089 19.178 70.4527 19.6193 70.733 20.142C71.017 20.6648 71.1989 21.2633 71.2784 21.9375ZM75.4858 29.6648C74.929 29.6648 74.4328 29.5682 73.9972 29.375C73.5616 29.178 73.2169 28.8883 72.9631 28.5057C72.7131 28.1193 72.5881 27.6383 72.5881 27.0625C72.5881 26.5777 72.6771 26.1705 72.8551 25.8409C73.0331 25.5114 73.2756 25.2462 73.5824 25.0455C73.8892 24.8447 74.2377 24.6932 74.6278 24.5909C75.0218 24.4886 75.4347 24.4167 75.8665 24.375C76.3741 24.322 76.7831 24.2727 77.0938 24.2273C77.4044 24.178 77.6297 24.1061 77.7699 24.0114C77.91 23.9167 77.9801 23.7765 77.9801 23.5909V23.5568C77.9801 23.197 77.8665 22.9186 77.6392 22.7216C77.4157 22.5246 77.0975 22.4261 76.6847 22.4261C76.2491 22.4261 75.9025 22.5227 75.6449 22.7159C75.3873 22.9053 75.2169 23.1439 75.1335 23.4318L72.8949 23.25C73.0085 22.7197 73.232 22.2614 73.5653 21.875C73.8987 21.4848 74.3286 21.1856 74.8551 20.9773C75.3854 20.7652 75.9991 20.6591 76.696 20.6591C77.1809 20.6591 77.6449 20.7159 78.0881 20.8295C78.535 20.9432 78.9309 21.1193 79.2756 21.358C79.6241 21.5966 79.8987 21.9034 80.0994 22.2784C80.3002 22.6496 80.4006 23.0947 80.4006 23.6136V29.5H78.1051V28.2898H78.0369C77.8968 28.5625 77.7093 28.803 77.4744 29.0114C77.2396 29.2159 76.9574 29.3769 76.6278 29.4943C76.2983 29.608 75.9176 29.6648 75.4858 29.6648ZM76.179 27.9943C76.535 27.9943 76.8494 27.9242 77.1222 27.7841C77.3949 27.6402 77.6089 27.447 77.7642 27.2045C77.9195 26.9621 77.9972 26.6875 77.9972 26.3807V25.4545C77.9214 25.5038 77.8172 25.5492 77.6847 25.5909C77.5559 25.6288 77.41 25.6648 77.2472 25.6989C77.0843 25.7292 76.9214 25.7576 76.7585 25.7841C76.5956 25.8068 76.4479 25.8277 76.3153 25.8466C76.0313 25.8883 75.7831 25.9545 75.571 26.0455C75.3589 26.1364 75.1941 26.2595 75.0767 26.4148C74.9593 26.5663 74.9006 26.7557 74.9006 26.983C74.9006 27.3125 75.0199 27.5644 75.2585 27.7386C75.5009 27.9091 75.8078 27.9943 76.179 27.9943ZM82.2784 29.5V20.7727H84.625V22.2955H84.7159C84.875 21.7538 85.142 21.3447 85.517 21.0682C85.892 20.7879 86.3239 20.6477 86.8125 20.6477C86.9337 20.6477 87.0644 20.6553 87.2045 20.6705C87.3447 20.6856 87.4678 20.7064 87.5739 20.733V22.8807C87.4602 22.8466 87.303 22.8163 87.1023 22.7898C86.9015 22.7633 86.7178 22.75 86.5511 22.75C86.1951 22.75 85.8769 22.8277 85.5966 22.983C85.3201 23.1345 85.1004 23.3466 84.9375 23.6193C84.7784 23.892 84.6989 24.2064 84.6989 24.5625V29.5H82.2784ZM92.5739 29.5V17.8636H97.1648C98.0436 17.8636 98.7936 18.0208 99.4148 18.3352C100.04 18.6458 100.515 19.0871 100.841 19.6591C101.17 20.2273 101.335 20.8958 101.335 21.6648C101.335 22.4375 101.169 23.1023 100.835 23.6591C100.502 24.2121 100.019 24.6364 99.3864 24.9318C98.7576 25.2273 97.9962 25.375 97.1023 25.375H94.0284V23.3977H96.7045C97.1742 23.3977 97.5644 23.3333 97.875 23.2045C98.1856 23.0758 98.4167 22.8826 98.5682 22.625C98.7235 22.3674 98.8011 22.0473 98.8011 21.6648C98.8011 21.2784 98.7235 20.9527 98.5682 20.6875C98.4167 20.4223 98.1837 20.2216 97.8693 20.0852C97.5587 19.9451 97.1667 19.875 96.6932 19.875H95.0341V29.5H92.5739ZM98.858 24.2045L101.75 29.5H99.0341L96.2045 24.2045H98.858ZM106.865 29.6705C105.967 29.6705 105.195 29.4886 104.547 29.125C103.903 28.7576 103.407 28.2386 103.058 27.5682C102.71 26.8939 102.536 26.0966 102.536 25.1761C102.536 24.2784 102.71 23.4905 103.058 22.8125C103.407 22.1345 103.897 21.6061 104.53 21.2273C105.166 20.8485 105.912 20.6591 106.768 20.6591C107.344 20.6591 107.88 20.7519 108.376 20.9375C108.876 21.1193 109.312 21.3939 109.683 21.7614C110.058 22.1288 110.35 22.5909 110.558 23.1477C110.767 23.7008 110.871 24.3485 110.871 25.0909V25.7557H103.501V24.2557H108.592C108.592 23.9072 108.517 23.5985 108.365 23.3295C108.214 23.0606 108.003 22.8504 107.734 22.6989C107.469 22.5436 107.161 22.4659 106.808 22.4659C106.441 22.4659 106.115 22.5511 105.831 22.7216C105.551 22.8883 105.331 23.1136 105.172 23.3977C105.013 23.678 104.931 23.9905 104.928 24.3352V25.7614C104.928 26.1932 105.007 26.5663 105.166 26.8807C105.329 27.1951 105.558 27.4375 105.854 27.608C106.149 27.7784 106.5 27.8636 106.905 27.8636C107.174 27.8636 107.42 27.8258 107.643 27.75C107.867 27.6742 108.058 27.5606 108.217 27.4091C108.376 27.2576 108.498 27.072 108.581 26.8523L110.82 27C110.706 27.5379 110.473 28.0076 110.121 28.4091C109.772 28.8068 109.321 29.1174 108.768 29.3409C108.219 29.5606 107.585 29.6705 106.865 29.6705ZM114.871 24.4545V29.5H112.45V20.7727H114.757V22.3125H114.859C115.053 21.8049 115.376 21.4034 115.831 21.108C116.286 20.8087 116.837 20.6591 117.484 20.6591C118.09 20.6591 118.619 20.7917 119.07 21.0568C119.52 21.322 119.871 21.7008 120.121 22.1932C120.371 22.6818 120.496 23.2652 120.496 23.9432V29.5H118.075V24.375C118.079 23.8409 117.943 23.4242 117.666 23.125C117.39 22.822 117.009 22.6705 116.524 22.6705C116.198 22.6705 115.911 22.7405 115.661 22.8807C115.414 23.0208 115.221 23.2254 115.081 23.4943C114.945 23.7595 114.875 24.0795 114.871 24.4545ZM127.045 20.7727V22.5909H121.79V20.7727H127.045ZM122.983 18.6818H125.403V26.8182C125.403 27.0417 125.438 27.2159 125.506 27.3409C125.574 27.4621 125.669 27.5473 125.79 27.5966C125.915 27.6458 126.059 27.6705 126.222 27.6705C126.335 27.6705 126.449 27.661 126.562 27.642C126.676 27.6193 126.763 27.6023 126.824 27.5909L127.205 29.392C127.083 29.4299 126.913 29.4735 126.693 29.5227C126.473 29.5758 126.206 29.608 125.892 29.6193C125.309 29.642 124.797 29.5644 124.358 29.3864C123.922 29.2083 123.583 28.9318 123.341 28.5568C123.098 28.1818 122.979 27.7083 122.983 27.1364V18.6818ZM131.111 29.6648C130.554 29.6648 130.058 29.5682 129.622 29.375C129.187 29.178 128.842 28.8883 128.588 28.5057C128.338 28.1193 128.213 27.6383 128.213 27.0625C128.213 26.5777 128.302 26.1705 128.48 25.8409C128.658 25.5114 128.901 25.2462 129.207 25.0455C129.514 24.8447 129.863 24.6932 130.253 24.5909C130.647 24.4886 131.06 24.4167 131.491 24.375C131.999 24.322 132.408 24.2727 132.719 24.2273C133.029 24.178 133.255 24.1061 133.395 24.0114C133.535 23.9167 133.605 23.7765 133.605 23.5909V23.5568C133.605 23.197 133.491 22.9186 133.264 22.7216C133.041 22.5246 132.723 22.4261 132.31 22.4261C131.874 22.4261 131.527 22.5227 131.27 22.7159C131.012 22.9053 130.842 23.1439 130.759 23.4318L128.52 23.25C128.634 22.7197 128.857 22.2614 129.19 21.875C129.524 21.4848 129.954 21.1856 130.48 20.9773C131.01 20.7652 131.624 20.6591 132.321 20.6591C132.806 20.6591 133.27 20.7159 133.713 20.8295C134.16 20.9432 134.556 21.1193 134.901 21.358C135.249 21.5966 135.524 21.9034 135.724 22.2784C135.925 22.6496 136.026 23.0947 136.026 23.6136V29.5H133.73V28.2898H133.662C133.522 28.5625 133.334 28.803 133.099 29.0114C132.865 29.2159 132.582 29.3769 132.253 29.4943C131.923 29.608 131.543 29.6648 131.111 29.6648ZM131.804 27.9943C132.16 27.9943 132.474 27.9242 132.747 27.7841C133.02 27.6402 133.234 27.447 133.389 27.2045C133.545 26.9621 133.622 26.6875 133.622 26.3807V25.4545C133.546 25.5038 133.442 25.5492 133.31 25.5909C133.181 25.6288 133.035 25.6648 132.872 25.6989C132.709 25.7292 132.546 25.7576 132.384 25.7841C132.221 25.8068 132.073 25.8277 131.94 25.8466C131.656 25.8883 131.408 25.9545 131.196 26.0455C130.984 26.1364 130.819 26.2595 130.702 26.4148C130.584 26.5663 130.526 26.7557 130.526 26.983C130.526 27.3125 130.645 27.5644 130.884 27.7386C131.126 27.9091 131.433 27.9943 131.804 27.9943ZM140.324 17.8636V29.5H137.903V17.8636H140.324Z" fill="black"/>
</svg>
