<svg width="32" height="32" viewBox="0 0 32 32" fill="none" xmlns="http://www.w3.org/2000/svg">
<rect width="32" height="32" rx="16" fill="#5937E0"/>
<path d="M15.652 21.5V14.812C15.652 14.5667 15.652 14.316 15.652 14.06C15.6627 13.7933 15.6733 13.5213 15.684 13.244C15.3213 13.5747 14.916 13.8627 14.468 14.108C14.02 14.3533 13.5613 14.524 13.092 14.62L12.804 12.764C13.0493 12.7427 13.3213 12.6733 13.62 12.556C13.9293 12.428 14.2387 12.2787 14.548 12.108C14.868 11.9267 15.156 11.74 15.412 11.548C15.6787 11.3453 15.8813 11.1427 16.02 10.94H17.812V21.5H15.652Z" fill="white"/>
</svg>
